<?xml version="1.0" standalone="no"?>
<svg xmlns="http://www.w3.org/2000/svg" viewBox="0 0 236.3028729110369 52.64" width="236.3028729110369" height="52.64"><rect fill="#44cc63" width="236.3028729110369" height="52.64" x="0" y="0"></rect><g fill="white" color="white" transform="translate(12 12) scale(0.1169085)"><svg width="183.587" height="244.978" x="0.0" y="0.0" viewBox="0 0 183.587 244.978"><g><path d="M97.669,48.963c-2.967,2.969-5.885,5.679-8.748,8.156v35.714h3.667v17.5h2.667v-17.5h3.666V60.202   c-0.089-0.195-0.19-0.382-0.272-0.58C97.233,56.203,96.926,52.499,97.669,48.963z"></path><path d="M92.499,26.954c1.089-0.398,2.245-0.62,3.426-0.62c2.513,0,4.916,0.937,6.766,2.639c2.39,2.2,3.452,5.302,3.169,8.31   c0.834-0.521,1.694-0.995,2.603-1.371c2.219-0.92,4.551-1.386,6.932-1.386c5.32,0,10.42,2.407,13.837,6.411l1.021-0.423V20.667   h3.668v18.327l3.665-1.519V20.667h3.668v15.287l2.414-1c0.761-2.338,2.501-4.256,4.835-5.226c1.045-0.434,2.143-0.651,3.264-0.651   c3.464,0,6.557,2.065,7.883,5.262c1.798,4.346-0.27,9.346-4.611,11.146c-1.042,0.432-2.14,0.649-3.259,0.649   c-1.346,0-2.667-0.32-3.856-0.923l-14.435,5.982c0.022,0.27,0.025,0.539,0.036,0.808h0.396v62h-10v7H55.587v8h4.333v113h17.334   v-113h83.999v113h17.334v-113h5v-8h-18v-7h-11V52h7.333V13.333h-8.666V0h-46.667v13.333H84.42v6.87   c1.805,0.047,3.514,0.646,4.956,1.75C91.014,23.211,92.091,24.994,92.499,26.954z"></path><path d="M77.202,33.618c-0.78-1.11-1.289-2.397-1.473-3.781c-0.088-0.665-0.088-1.327-0.022-1.979   c-2.658-6.541-8.342-11.736-15.742-13.459c-12.1-2.818-24.193,4.707-27.012,16.805c-2.816,12.1,4.709,24.193,16.809,27.01   c0.218,0.051,0.436,0.091,0.653,0.135c7.42-3.166,16.387-8.48,26.434-17.314C77.388,38.531,77.493,36.031,77.202,33.618z"></path><path d="M15.252,145.553c2.649,9.57,5.5,23.609,5.474,39.624c0,13.377-1.946,28.093-7.449,42.956   c-2.396,6.475,0.908,13.666,7.383,16.063c1.432,0.53,2.897,0.781,4.339,0.781c5.081,0,9.857-3.12,11.725-8.164   c6.706-18.12,9.005-35.85,9.005-51.637c-0.037-24.117-5.278-43.761-8.84-54.371c-2.028-16.361,2.269-35.202,5.015-48.923   c-4.222,0.785-7.657,1.005-10.123,1.005h-0.007h-0.332c-2.847,0-4.643-0.264-5.282-0.377c-2.633-0.474-4.923-1.94-6.447-4.133   c-1.526-2.193-2.104-4.849-1.633-7.478c0.856-4.772,4.99-8.235,9.833-8.235c0.552,0,1.107,0.045,1.651,0.137l0.195,0.018   c0.261,0.025,0.831,0.068,1.683,0.068c2.045-0.028,4.986-0.281,8.686-1.132c-1.749-2.777-4.209-4.832-7.298-5.603   c-8.537-2.129-20.912,2.508-25.947,17.15c-6.805,20.174-8.268,33.305-5.682,55.52C3.302,139.644,8.976,143.935,15.252,145.553z"></path><rect x="77.921" y="113.667" width="25.334" height="3.333"></rect><path d="M88.568,29.561c0.342-0.371,0.717-0.703,1.106-1.016c-0.045-1.598-0.757-3.16-2.125-4.208   c-2.423-1.858-5.894-1.4-7.752,1.021c-1.857,2.422-1.398,5.893,1.023,7.75c0.978,0.75,2.124,1.103,3.266,1.115   C85.563,32.741,87.055,31.197,88.568,29.561z"></path><path d="M101.383,45.128l0.633,0.485c-2.024,3.847-2.389,8.531-0.595,12.86c1.794,4.329,5.365,7.381,9.517,8.668l-2.544,19.362   c-1.873,0.684-3.313,2.357-3.59,4.471c-0.398,3.026,1.733,5.804,4.761,6.202c3.025,0.397,5.803-1.735,6.2-4.761   c0.277-2.113-0.68-4.102-2.313-5.247l2.546-19.374c1.744-0.067,3.506-0.421,5.213-1.129c6.923-2.87,10.57-10.277,8.956-17.345   l18.053-7.482c1.529,1.28,3.698,1.69,5.668,0.874c2.818-1.168,4.157-4.403,2.988-7.224c-1.168-2.82-4.403-4.158-7.222-2.99   c-1.97,0.816-3.213,2.641-3.388,4.627l-18.053,7.482c-3.859-6.137-11.678-8.794-18.601-5.924c-1.707,0.708-3.201,1.703-4.481,2.889   l-0.486-0.373c-0.374,0.672-0.821,1.314-1.363,1.904C102.647,43.797,102.016,44.458,101.383,45.128z M112.239,45.015   c4.23-1.753,9.08,0.256,10.833,4.484c1.753,4.23-0.255,9.08-4.484,10.834c-4.229,1.753-9.08-0.255-10.833-4.485   C106.001,51.619,108.008,46.768,112.239,45.015z"></path><path d="M29.564,64.811c-0.178-0.017-0.289-0.03-0.328-0.036c-4.314-0.719-8.415,2.162-9.19,6.479   c-0.779,4.348,2.112,8.507,6.462,9.287c0.422,0.075,2.129,0.347,4.933,0.347c0.109,0.001,0.222,0.002,0.334,0.002   c11.19,0,38.611-4.844,70.035-39.139c2.989-3.251,2.78-8.313-0.472-11.305c-3.251-2.99-8.31-2.78-11.302,0.471   C60.727,62.622,38.332,64.792,31.44,64.888C30.553,64.888,29.921,64.845,29.564,64.811z"></path></g></svg></g><path fill="white" fill-rule="nonzero" d="M7.84 28.64L7.84 28.64Q5.68 28.64 3.90 27.54Q2.12 26.44 1.06 24.62Q0 22.80 0 20.60L0 20.60L0 18.76Q0 18.56 0.20 18.56L0.20 18.56L4.68 18.56Q4.84 18.56 4.84 18.76L4.84 18.76L4.84 20.60Q4.84 21.92 5.72 22.86Q6.60 23.80 7.84 23.80L7.84 23.80Q9.08 23.80 9.96 22.84Q10.84 21.88 10.84 20.60L10.84 20.60Q10.84 19.12 8.92 18.04L8.92 18.04Q8.28 17.68 6.92 16.92Q5.56 16.16 4.36 15.48L4.36 15.48Q2.16 14.20 1.10 12.26Q0.04 10.32 0.04 7.88L0.04 7.88Q0.04 5.64 1.12 3.86Q2.20 2.08 3.98 1.04Q5.76 0 7.84 0L7.84 0Q9.96 0 11.74 1.06Q13.52 2.12 14.58 3.90Q15.64 5.68 15.64 7.88L15.64 7.88L15.64 11.16Q15.64 11.32 15.48 11.32L15.48 11.32L11 11.32Q10.84 11.32 10.84 11.16L10.84 11.16L10.80 7.88Q10.80 6.48 9.92 5.60Q9.04 4.72 7.84 4.72L7.84 4.72Q6.60 4.72 5.72 5.66Q4.84 6.60 4.84 7.88L4.84 7.88Q4.84 9.20 5.40 10.08Q5.96 10.96 7.44 11.76L7.44 11.76Q7.64 11.88 8.22 12.18Q8.80 12.48 9.48 12.86Q10.16 13.24 10.70 13.52Q11.24 13.80 11.36 13.88L11.36 13.88Q13.36 15.00 14.52 16.62Q15.68 18.24 15.68 20.60L15.68 20.60Q15.68 22.88 14.62 24.70Q13.56 26.52 11.78 27.58Q10 28.64 7.84 28.64ZM31.56 28.24L18.64 28.24Q18.48 28.24 18.48 28.04L18.48 28.04L18.52 0.60Q18.52 0.40 18.72 0.40L18.72 0.40L23.16 0.40Q23.36 0.40 23.36 0.60L23.36 0.60L23.32 23.32L31.56 23.32Q31.76 23.32 31.76 23.52L31.76 23.52L31.76 28.04Q31.76 28.24 31.56 28.24L31.56 28.24ZM39.08 28.24L34.56 28.24Q34.36 28.24 34.36 28.04L34.36 28.04L34.40 0.56Q34.40 0.40 34.56 0.40L34.56 0.40L39.04 0.40Q39.20 0.40 39.20 0.56L39.20 0.56L39.24 28.04Q39.24 28.24 39.08 28.24L39.08 28.24ZM47.44 28.24L42.92 28.24Q42.76 28.24 42.76 28.04L42.76 28.04L42.84 0.56Q42.84 0.40 43.00 0.40L43.00 0.40L47.88 0.40Q48.04 0.40 48.16 0.56L48.16 0.56L51.80 5.84L55.44 0.56Q55.56 0.40 55.72 0.40L55.72 0.40L60.64 0.40Q60.80 0.40 60.80 0.56L60.80 0.56L60.88 28.04Q60.88 28.24 60.72 28.24L60.72 28.24L56.20 28.24Q56.04 28.24 56.04 28.04L56.04 28.04L56 7.64L51.80 13.72L47.64 7.64L47.60 28.04Q47.60 28.24 47.44 28.24L47.44 28.24ZM77.32 28.24L64.40 28.24Q64.24 28.24 64.24 28.04L64.24 28.04L64.28 0.56Q64.28 0.40 64.44 0.40L64.44 0.40L77.28 0.40Q77.44 0.40 77.44 0.60L77.44 0.60L77.44 5.08Q77.44 5.24 77.28 5.24L77.28 5.24L69.08 5.24L69.08 11.48L77.28 11.48Q77.44 11.48 77.44 11.64L77.44 11.64L77.48 16.16Q77.48 16.32 77.32 16.32L77.32 16.32L69.08 16.32L69.08 23.32L77.32 23.32Q77.48 23.32 77.48 23.52L77.48 23.52L77.48 28.08Q77.48 28.24 77.32 28.24L77.32 28.24ZM89.56 28.24L85.04 28.24Q84.88 28.24 84.88 28.04L84.88 28.04L84.88 5.24L79.68 5.24Q79.48 5.24 79.48 5.04L79.48 5.04L79.52 0.56Q79.52 0.40 79.68 0.40L79.68 0.40L94.88 0.40Q95.08 0.40 95.08 0.56L95.08 0.56L95.08 5.04Q95.08 5.24 94.92 5.24L94.92 5.24L89.68 5.24L89.72 28.04Q89.72 28.24 89.56 28.24L89.56 28.24ZM101.76 28.24L97.24 28.24Q97.04 28.24 97.04 28.04L97.04 28.04L97.08 0.56Q97.08 0.40 97.24 0.40L97.24 0.40L101.72 0.40Q101.88 0.40 101.88 0.56L101.88 0.56L101.92 28.04Q101.92 28.24 101.76 28.24L101.76 28.24ZM109.80 28.24L105.80 28.24Q105.48 28.24 105.48 27.96L105.48 27.96L105.44 0.72Q105.44 0.40 105.76 0.40L105.76 0.40L109.36 0.40L116.12 16.16L115.92 0.72Q115.92 0.40 116.28 0.40L116.28 0.40L120.24 0.40Q120.48 0.40 120.48 0.72L120.48 0.72L120.52 28.00Q120.52 28.24 120.32 28.24L120.32 28.24L116.80 28.24L109.88 13.52L110.16 27.92Q110.16 28.24 109.80 28.24L109.80 28.24ZM128.68 28.24L124.16 28.24Q124 28.24 124 28.04L124 28.04L124.08 0.60Q124.08 0.40 124.24 0.40L124.24 0.40L128.72 0.40Q128.88 0.40 128.88 0.60L128.88 0.60L128.88 10.08L135.16 0.56Q135.28 0.40 135.44 0.40L135.44 0.40L140.04 0.40Q140.20 0.40 140.12 0.56L140.12 0.56L133.20 11.60L140.96 28.08Q141.04 28.24 140.76 28.24L140.76 28.24L135.88 28.24Q135.68 28.24 135.64 28.08L135.64 28.08L130.24 16.32L128.84 18.52L128.84 28.04Q128.84 28.24 128.68 28.24L128.68 28.24ZM155.84 28.24L142.92 28.24Q142.76 28.24 142.76 28.04L142.76 28.04L142.80 0.56Q142.80 0.40 142.96 0.40L142.96 0.40L155.80 0.40Q155.96 0.40 155.96 0.60L155.96 0.60L155.96 5.08Q155.96 5.24 155.80 5.24L155.80 5.24L147.60 5.24L147.60 11.48L155.80 11.48Q155.96 11.48 155.96 11.64L155.96 11.64L156 16.16Q156 16.32 155.84 16.32L155.84 16.32L147.60 16.32L147.60 23.32L155.84 23.32Q156 23.32 156 23.52L156 23.52L156 28.08Q156 28.24 155.84 28.24L155.84 28.24ZM164.24 28.24L159.72 28.24Q159.56 28.24 159.56 28.04L159.56 28.04L159.64 0.56Q159.64 0.40 159.80 0.40L159.80 0.40L167.88 0.40Q170.04 0.40 171.86 1.46Q173.68 2.52 174.76 4.30Q175.84 6.08 175.84 8.32L175.84 8.32Q175.84 9.80 175.40 10.98Q174.96 12.16 174.36 12.98Q173.76 13.80 173.28 14.20L173.28 14.20Q175.44 16.60 175.44 19.84L175.44 19.84L175.48 28.04Q175.48 28.24 175.28 28.24L175.28 28.24L170.76 28.24Q170.60 28.24 170.60 28.12L170.60 28.12L170.60 19.84Q170.60 18.40 169.58 17.34Q168.56 16.28 167.08 16.28L167.08 16.28L164.44 16.28L164.40 28.04Q164.40 28.24 164.24 28.24L164.24 28.24ZM164.44 5.20L164.44 11.48L167.88 11.48Q169.12 11.48 170.08 10.56Q171.04 9.64 171.04 8.32L171.04 8.32Q171.04 7.04 170.10 6.12Q169.16 5.20 167.88 5.20L167.88 5.20L164.44 5.20Z" transform="translate(48.463 12) scale(1)"></path></svg>