<?xml version="1.0" standalone="no"?>
<svg xmlns="http://www.w3.org/2000/svg" viewBox="0 0 173.2 29" width="173.2" height="29">
    <path fill="#605a6a" fill-rule="nonzero"
          d="M6.38 17.88Q3.34 17.88 0.67 16.73L0.67 16.73Q0.38 16.61 0.19 16.33Q0 16.06 0 15.74L0 15.74Q0 15.34 0.28 15.04Q0.55 14.74 0.98 14.74L0.98 14.74Q1.22 14.74 1.44 14.83L1.44 14.83Q3.65 15.82 6.17 15.82L6.17 15.82Q10.37 15.82 10.37 13.06L10.37 13.06Q10.37 12.34 9.83 11.86Q9.29 11.38 8.50 11.10Q7.70 10.82 6.24 10.44L6.24 10.44Q4.30 9.94 3.10 9.47Q1.90 9 1.03 8.06Q0.17 7.13 0.17 5.57L0.17 5.57Q0.17 4.20 0.89 3.08Q1.61 1.97 3.01 1.31Q4.42 0.65 6.38 0.65L6.38 0.65Q9.02 0.65 11.16 1.44L11.16 1.44Q11.83 1.68 11.83 2.40L11.83 2.40Q11.83 2.78 11.57 3.10Q11.30 3.41 10.87 3.41L10.87 3.41Q10.73 3.41 10.49 3.31L10.49 3.31Q8.62 2.66 6.62 2.66L6.62 2.66Q4.73 2.66 3.54 3.38Q2.35 4.10 2.35 5.40L2.35 5.40Q2.35 6.26 2.92 6.80Q3.48 7.34 4.33 7.64Q5.18 7.94 6.65 8.28L6.65 8.28Q8.54 8.74 9.71 9.19Q10.87 9.65 11.70 10.61Q12.53 11.57 12.53 13.20L12.53 13.20Q12.53 14.54 11.76 15.61Q10.99 16.68 9.60 17.28Q8.21 17.88 6.38 17.88L6.38 17.88ZM16.34 17.76Q15.89 17.76 15.58 17.45Q15.26 17.14 15.26 16.68L15.26 16.68L15.26 1.10Q15.26 0.65 15.58 0.32Q15.89 0 16.34 0L16.34 0Q16.82 0 17.14 0.31Q17.45 0.62 17.45 1.10L17.45 1.10L17.45 16.68Q17.45 17.14 17.12 17.45Q16.80 17.76 16.34 17.76L16.34 17.76ZM22.27 2.90Q21.77 2.90 21.41 2.54Q21.05 2.18 21.05 1.68L21.05 1.68L21.05 1.58Q21.05 1.08 21.41 0.72Q21.77 0.36 22.27 0.36L22.27 0.36L22.42 0.36Q22.92 0.36 23.28 0.72Q23.64 1.08 23.64 1.58L23.64 1.58L23.64 1.68Q23.64 2.18 23.28 2.54Q22.92 2.90 22.42 2.90L22.42 2.90L22.27 2.90ZM22.32 17.76Q21.86 17.76 21.55 17.45Q21.24 17.14 21.24 16.68L21.24 16.68L21.24 6.38Q21.24 5.93 21.55 5.60Q21.86 5.28 22.32 5.28L22.32 5.28Q22.80 5.28 23.11 5.59Q23.42 5.90 23.42 6.38L23.42 6.38L23.42 16.68Q23.42 17.14 23.10 17.45Q22.78 17.76 22.32 17.76L22.32 17.76ZM28.30 17.76Q27.84 17.76 27.53 17.45Q27.22 17.14 27.22 16.68L27.22 16.68L27.22 6.38Q27.22 5.93 27.53 5.60Q27.84 5.28 28.30 5.28L28.30 5.28Q28.75 5.28 29.08 5.60Q29.40 5.93 29.40 6.38L29.40 6.38L29.40 7.37Q30.07 6.41 31.02 5.78Q31.97 5.16 33.48 5.16L33.48 5.16Q34.82 5.16 35.78 5.88Q36.74 6.60 37.15 7.63L37.15 7.63Q38.64 5.16 41.57 5.16L41.57 5.16Q42.91 5.16 43.81 5.83Q44.71 6.50 45.14 7.56Q45.58 8.62 45.58 9.77L45.58 9.77L45.58 16.68Q45.58 17.14 45.25 17.45Q44.93 17.76 44.47 17.76L44.47 17.76Q44.02 17.76 43.70 17.45Q43.39 17.14 43.39 16.68L43.39 16.68L43.39 10.20Q43.39 8.64 42.84 7.91Q42.29 7.18 40.94 7.18L40.94 7.18Q39.72 7.18 38.92 7.81Q38.11 8.45 37.49 9.48L37.49 9.48L37.49 16.68Q37.49 17.14 37.16 17.45Q36.84 17.76 36.38 17.76L36.38 17.76Q35.93 17.76 35.62 17.45Q35.30 17.14 35.30 16.68L35.30 16.68L35.30 10.20Q35.30 8.64 34.75 7.91Q34.20 7.18 32.86 7.18L32.86 7.18Q31.63 7.18 30.83 7.81Q30.02 8.45 29.40 9.48L29.40 9.48L29.40 16.68Q29.40 17.14 29.08 17.45Q28.75 17.76 28.30 17.76L28.30 17.76ZM54.72 17.88Q51.79 17.88 50.15 16.21Q48.50 14.54 48.50 11.52L48.50 11.52Q48.50 9.82 49.13 8.38Q49.75 6.94 51.05 6.05Q52.34 5.16 54.24 5.16L54.24 5.16Q56.02 5.16 57.31 5.99Q58.61 6.82 59.28 8.20Q59.95 9.58 59.95 11.21L59.95 11.21Q59.95 11.66 59.65 11.98Q59.35 12.29 58.85 12.29L58.85 12.29L50.71 12.29Q50.90 13.97 51.96 14.90Q53.02 15.84 54.91 15.84L54.91 15.84Q55.92 15.84 56.68 15.65Q57.43 15.46 58.15 15.10L58.15 15.10Q58.34 15 58.58 15L58.58 15Q58.97 15 59.26 15.26Q59.54 15.53 59.54 15.94L59.54 15.94Q59.54 16.46 58.92 16.82L58.92 16.82Q57.98 17.35 57.07 17.62Q56.16 17.88 54.72 17.88L54.72 17.88ZM50.71 10.51L57.79 10.51Q57.72 9.34 57.18 8.54Q56.64 7.75 55.85 7.38Q55.06 7.01 54.24 7.01L54.24 7.01Q53.42 7.01 52.63 7.38Q51.84 7.75 51.31 8.54Q50.78 9.34 50.71 10.51L50.71 10.51ZM67.06 17.88Q63.55 17.88 63.55 14.71L63.55 14.71L63.55 7.27L61.85 7.27Q61.66 7.27 61.52 7.14Q61.39 7.01 61.39 6.82L61.39 6.82Q61.39 6.58 61.61 6.41L61.61 6.41L64.87 3.22Q65.09 3 65.28 3L65.28 3Q65.47 3 65.60 3.14Q65.74 3.29 65.74 3.48L65.74 3.48L65.74 5.40L68.45 5.40Q68.86 5.40 69.12 5.66Q69.38 5.93 69.38 6.34L69.38 6.34Q69.38 6.72 69.12 7.00Q68.86 7.27 68.45 7.27L68.45 7.27L65.74 7.27L65.74 14.52Q65.74 15.46 66.18 15.71Q66.62 15.96 67.30 15.96L67.30 15.96Q67.78 15.96 68.26 15.82L68.26 15.82Q68.35 15.79 68.46 15.77Q68.57 15.74 68.74 15.74L68.74 15.74Q69.07 15.74 69.34 16.00Q69.60 16.25 69.60 16.61L69.60 16.61Q69.60 17.16 69.05 17.45L69.05 17.45Q68.11 17.88 67.06 17.88L67.06 17.88ZM73.03 2.90Q72.53 2.90 72.17 2.54Q71.81 2.18 71.81 1.68L71.81 1.68L71.81 1.58Q71.81 1.08 72.17 0.72Q72.53 0.36 73.03 0.36L73.03 0.36L73.18 0.36Q73.68 0.36 74.04 0.72Q74.40 1.08 74.40 1.58L74.40 1.58L74.40 1.68Q74.40 2.18 74.04 2.54Q73.68 2.90 73.18 2.90L73.18 2.90L73.03 2.90ZM73.08 17.76Q72.62 17.76 72.31 17.45Q72.00 17.14 72.00 16.68L72.00 16.68L72.00 6.38Q72.00 5.93 72.31 5.60Q72.62 5.28 73.08 5.28L73.08 5.28Q73.56 5.28 73.87 5.59Q74.18 5.90 74.18 6.38L74.18 6.38L74.18 16.68Q74.18 17.14 73.86 17.45Q73.54 17.76 73.08 17.76L73.08 17.76ZM79.06 17.76Q78.60 17.76 78.29 17.45Q77.98 17.14 77.98 16.68L77.98 16.68L77.98 6.38Q77.98 5.93 78.29 5.60Q78.60 5.28 79.06 5.28L79.06 5.28Q79.51 5.28 79.84 5.60Q80.16 5.93 80.16 6.38L80.16 6.38L80.16 7.37Q81.07 6.36 82.13 5.76Q83.18 5.16 84.62 5.16L84.62 5.16Q85.94 5.16 86.92 5.78Q87.89 6.41 88.40 7.49Q88.92 8.57 88.92 9.86L88.92 9.86L88.92 16.68Q88.92 17.14 88.60 17.45Q88.27 17.76 87.82 17.76L87.82 17.76Q87.36 17.76 87.05 17.45Q86.74 17.14 86.74 16.68L86.74 16.68L86.74 10.10Q86.74 7.18 84.10 7.18L84.10 7.18Q82.90 7.18 81.95 7.80Q81.00 8.42 80.16 9.48L80.16 9.48L80.16 16.68Q80.16 17.14 79.84 17.45Q79.51 17.76 79.06 17.76L79.06 17.76ZM93.67 17.76Q93.22 17.76 92.90 17.45Q92.59 17.14 92.59 16.68L92.59 16.68L92.59 1.10Q92.59 0.65 92.90 0.32Q93.22 0 93.67 0L93.67 0Q94.13 0 94.45 0.32Q94.78 0.65 94.78 1.10L94.78 1.10L94.78 10.92L100.49 5.64Q100.85 5.33 101.21 5.33L101.21 5.33Q101.76 5.33 102.01 5.64Q102.26 5.95 102.26 6.38L102.26 6.38Q102.26 6.79 101.86 7.20L101.86 7.20L98.40 10.30L102.74 16.06Q102.98 16.37 102.98 16.70L102.98 16.70Q102.98 17.18 102.67 17.47Q102.36 17.76 101.88 17.76L101.88 17.76Q101.64 17.76 101.40 17.64Q101.16 17.52 100.99 17.30L100.99 17.30L96.86 11.69L94.78 13.58L94.78 16.68Q94.78 17.14 94.45 17.45Q94.13 17.76 93.67 17.76L93.67 17.76ZM110.93 17.88Q108.00 17.88 106.36 16.21Q104.71 14.54 104.71 11.52L104.71 11.52Q104.71 9.82 105.34 8.38Q105.96 6.94 107.26 6.05Q108.55 5.16 110.45 5.16L110.45 5.16Q112.22 5.16 113.52 5.99Q114.82 6.82 115.49 8.20Q116.16 9.58 116.16 11.21L116.16 11.21Q116.16 11.66 115.86 11.98Q115.56 12.29 115.06 12.29L115.06 12.29L106.92 12.29Q107.11 13.97 108.17 14.90Q109.22 15.84 111.12 15.84L111.12 15.84Q112.13 15.84 112.88 15.65Q113.64 15.46 114.36 15.10L114.36 15.10Q114.55 15 114.79 15L114.79 15Q115.18 15 115.46 15.26Q115.75 15.53 115.75 15.94L115.75 15.94Q115.75 16.46 115.13 16.82L115.13 16.82Q114.19 17.35 113.28 17.62Q112.37 17.88 110.93 17.88L110.93 17.88ZM106.92 10.51L114.00 10.51Q113.93 9.34 113.39 8.54Q112.85 7.75 112.06 7.38Q111.26 7.01 110.45 7.01L110.45 7.01Q109.63 7.01 108.84 7.38Q108.05 7.75 107.52 8.54Q106.99 9.34 106.92 10.51L106.92 10.51ZM120.12 17.76Q119.66 17.76 119.35 17.45Q119.04 17.14 119.04 16.68L119.04 16.68L119.04 6.38Q119.04 5.93 119.35 5.60Q119.66 5.28 120.12 5.28L120.12 5.28Q120.58 5.28 120.90 5.60Q121.22 5.93 121.22 6.38L121.22 6.38L121.22 7.42Q122.90 5.16 124.99 5.16L124.99 5.16L125.11 5.16Q125.57 5.16 125.87 5.47Q126.17 5.78 126.17 6.24L126.17 6.24Q126.17 6.70 125.86 6.98Q125.54 7.27 125.06 7.27L125.06 7.27L124.94 7.27Q123.79 7.27 122.83 7.84Q121.87 8.40 121.22 9.38L121.22 9.38L121.22 16.68Q121.22 17.14 120.90 17.45Q120.58 17.76 120.12 17.76L120.12 17.76Z"
          transform="translate(0, 5.561)"></path>
    <line x1="135.168" y1="2%" x2="135.168" y2="98%" stroke="#605a6a" stroke-linecap="round"></line>
    <g fill="#302836" color="#302836" transform="translate(144.168 0) scale(0.90625)">
        <svg width="32.0" height="32.0" x="0.0" y="0.0" viewBox="0 0 32 32">
            <g>
                <g>
                    <polygon points="28,2 28,2.52 28,5.5 28,6 30,6 30,2   "></polygon>
                    <polygon
                            points="2,5 5.5,5 9.5,5 20.5,5 24.5,5 27.5,5 27.5,4.5 27.5,3.52 27.5,3.02 2,3.02   "></polygon>
                    <path d="M21.5,5.5H21V7H9V5.5H8.5h-2H6V30h18V5.5h-0.5H21.5z M16.83,10H21v5h-4.5H16l0.04,0.5L17,28h-4l0.96-12.5L14,15h-0.5H8    C9.86,11.9,13.21,10,16.83,10z"></path>
                </g>
            </g>
        </svg>
    </g>
</svg>